<svg width="42" height="44" viewBox="0 0 42 44" fill="none" xmlns="http://www.w3.org/2000/svg">
<path d="M4.99344 38.67H2.21344L1.75344 40H0.283438L2.79344 33.01H4.42344L6.93344 40H5.45344L4.99344 38.67ZM4.61344 37.55L3.60344 34.63L2.59344 37.55H4.61344ZM7.51164 37.21C7.51164 36.65 7.62164 36.1533 7.84164 35.72C8.06831 35.2867 8.37497 34.9533 8.76164 34.72C9.14831 34.4867 9.57831 34.37 10.0516 34.37C10.4116 34.37 10.755 34.45 11.0816 34.61C11.4083 34.7633 11.6683 34.97 11.8616 35.23V32.6H13.2816V40H11.8616V39.18C11.6883 39.4533 11.445 39.6733 11.1316 39.84C10.8183 40.0067 10.455 40.09 10.0416 40.09C9.57497 40.09 9.14831 39.97 8.76164 39.73C8.37497 39.49 8.06831 39.1533 7.84164 38.72C7.62164 38.28 7.51164 37.7767 7.51164 37.21ZM11.8716 37.23C11.8716 36.89 11.805 36.6 11.6716 36.36C11.5383 36.1133 11.3583 35.9267 11.1316 35.8C10.905 35.6667 10.6616 35.6 10.4016 35.6C10.1416 35.6 9.90164 35.6633 9.68164 35.79C9.46164 35.9167 9.28164 36.1033 9.14164 36.35C9.00831 36.59 8.94164 36.8767 8.94164 37.21C8.94164 37.5433 9.00831 37.8367 9.14164 38.09C9.28164 38.3367 9.46164 38.5267 9.68164 38.66C9.90831 38.7933 10.1483 38.86 10.4016 38.86C10.6616 38.86 10.905 38.7967 11.1316 38.67C11.3583 38.5367 11.5383 38.35 11.6716 38.11C11.805 37.8633 11.8716 37.57 11.8716 37.23ZM14.289 37.21C14.289 36.65 14.399 36.1533 14.619 35.72C14.8457 35.2867 15.1523 34.9533 15.539 34.72C15.9257 34.4867 16.3557 34.37 16.829 34.37C17.189 34.37 17.5323 34.45 17.859 34.61C18.1857 34.7633 18.4457 34.97 18.639 35.23V32.6H20.059V40H18.639V39.18C18.4657 39.4533 18.2223 39.6733 17.909 39.84C17.5957 40.0067 17.2323 40.09 16.819 40.09C16.3523 40.09 15.9257 39.97 15.539 39.73C15.1523 39.49 14.8457 39.1533 14.619 38.72C14.399 38.28 14.289 37.7767 14.289 37.21ZM18.649 37.23C18.649 36.89 18.5823 36.6 18.449 36.36C18.3157 36.1133 18.1357 35.9267 17.909 35.8C17.6823 35.6667 17.439 35.6 17.179 35.6C16.919 35.6 16.679 35.6633 16.459 35.79C16.239 35.9167 16.059 36.1033 15.919 36.35C15.7857 36.59 15.719 36.8767 15.719 37.21C15.719 37.5433 15.7857 37.8367 15.919 38.09C16.059 38.3367 16.239 38.5267 16.459 38.66C16.6857 38.7933 16.9257 38.86 17.179 38.86C17.439 38.86 17.6823 38.7967 17.909 38.67C18.1357 38.5367 18.3157 38.35 18.449 38.11C18.5823 37.8633 18.649 37.57 18.649 37.23ZM27.8791 33.02V37.92C27.8791 38.6 27.6825 39.13 27.2891 39.51C26.8958 39.8833 26.3691 40.07 25.7091 40.07C25.0425 40.07 24.5025 39.8767 24.0891 39.49C23.6825 39.1033 23.4791 38.5633 23.4791 37.87H24.8791C24.8858 38.17 24.9558 38.4033 25.0891 38.57C25.2291 38.7367 25.4291 38.82 25.6891 38.82C25.9425 38.82 26.1358 38.74 26.2691 38.58C26.4025 38.42 26.4691 38.2 26.4691 37.92V33.02H27.8791ZM31.9723 40.09C31.4389 40.09 30.9589 39.9733 30.5323 39.74C30.1056 39.5 29.7689 39.1633 29.5223 38.73C29.2823 38.2967 29.1623 37.7967 29.1623 37.23C29.1623 36.6633 29.2856 36.1633 29.5323 35.73C29.7856 35.2967 30.1289 34.9633 30.5623 34.73C30.9956 34.49 31.4789 34.37 32.0123 34.37C32.5456 34.37 33.0289 34.49 33.4623 34.73C33.8956 34.9633 34.2356 35.2967 34.4823 35.73C34.7356 36.1633 34.8623 36.6633 34.8623 37.23C34.8623 37.7967 34.7323 38.2967 34.4723 38.73C34.2189 39.1633 33.8723 39.5 33.4323 39.74C32.9989 39.9733 32.5123 40.09 31.9723 40.09ZM31.9723 38.87C32.2256 38.87 32.4623 38.81 32.6823 38.69C32.9089 38.5633 33.0889 38.3767 33.2223 38.13C33.3556 37.8833 33.4223 37.5833 33.4223 37.23C33.4223 36.7033 33.2823 36.3 33.0023 36.02C32.7289 35.7333 32.3923 35.59 31.9923 35.59C31.5923 35.59 31.2556 35.7333 30.9823 36.02C30.7156 36.3 30.5823 36.7033 30.5823 37.23C30.5823 37.7567 30.7123 38.1633 30.9723 38.45C31.2389 38.73 31.5723 38.87 31.9723 38.87ZM37.2892 35.27C37.4692 35.0033 37.7159 34.7867 38.0292 34.62C38.3492 34.4533 38.7126 34.37 39.1192 34.37C39.5926 34.37 40.0192 34.4867 40.3992 34.72C40.7859 34.9533 41.0892 35.2867 41.3092 35.72C41.5359 36.1467 41.6492 36.6433 41.6492 37.21C41.6492 37.7767 41.5359 38.28 41.3092 38.72C41.0892 39.1533 40.7859 39.49 40.3992 39.73C40.0192 39.97 39.5926 40.09 39.1192 40.09C38.7059 40.09 38.3426 40.01 38.0292 39.85C37.7226 39.6833 37.4759 39.47 37.2892 39.21V40H35.8892V32.6H37.2892V35.27ZM40.2192 37.21C40.2192 36.8767 40.1492 36.59 40.0092 36.35C39.8759 36.1033 39.6959 35.9167 39.4692 35.79C39.2492 35.6633 39.0092 35.6 38.7492 35.6C38.4959 35.6 38.2559 35.6667 38.0292 35.8C37.8092 35.9267 37.6292 36.1133 37.4892 36.36C37.3559 36.6067 37.2892 36.8967 37.2892 37.23C37.2892 37.5633 37.3559 37.8533 37.4892 38.1C37.6292 38.3467 37.8092 38.5367 38.0292 38.67C38.2559 38.7967 38.4959 38.86 38.7492 38.86C39.0092 38.86 39.2492 38.7933 39.4692 38.66C39.6959 38.5267 39.8759 38.3367 40.0092 38.09C40.1492 37.8433 40.2192 37.55 40.2192 37.21Z" fill="black"/>
<path d="M17 12H25M21 16V8M18 22H24C29 22 31 20 31 15V9C31 4 29 2 24 2H18C13 2 11 4 11 9V15C11 20 13 22 18 22Z" stroke="black" stroke-width="1.5" stroke-linecap="round" stroke-linejoin="round"/>
</svg>
