<svg width="48" height="44" viewBox="0 0 48 44" fill="none" xmlns="http://www.w3.org/2000/svg">
<path d="M20 2V5M28 2V5M15.5 9.09H32.5M33 8.5V17C33 20 31.5 22 28 22H20C16.5 22 15 20 15 17V8.5C15 5.5 16.5 3.5 20 3.5H28C31.5 3.5 33 5.5 33 8.5Z" stroke="black" stroke-width="1.5" stroke-miterlimit="10" stroke-linecap="round" stroke-linejoin="round"/>
<path d="M27.695 13.7H27.704M27.695 16.7H27.704M23.995 13.7H24.005M23.995 16.7H24.005M20.294 13.7H20.304M20.294 16.7H20.304" stroke="black" stroke-width="2" stroke-linecap="round" stroke-linejoin="round"/>
<path d="M0.35 36.5C0.35 35.8133 0.503333 35.2 0.81 34.66C1.12333 34.1133 1.54667 33.69 2.08 33.39C2.62 33.0833 3.22333 32.93 3.89 32.93C4.67 32.93 5.35333 33.13 5.94 33.53C6.52667 33.93 6.93667 34.4833 7.17 35.19H5.56C5.4 34.8567 5.17333 34.6067 4.88 34.44C4.59333 34.2733 4.26 34.19 3.88 34.19C3.47333 34.19 3.11 34.2867 2.79 34.48C2.47667 34.6667 2.23 34.9333 2.05 35.28C1.87667 35.6267 1.79 36.0333 1.79 36.5C1.79 36.96 1.87667 37.3667 2.05 37.72C2.23 38.0667 2.47667 38.3367 2.79 38.53C3.11 38.7167 3.47333 38.81 3.88 38.81C4.26 38.81 4.59333 38.7267 4.88 38.56C5.17333 38.3867 5.4 38.1333 5.56 37.8H7.17C6.93667 38.5133 6.52667 39.07 5.94 39.47C5.36 39.8633 4.67667 40.06 3.89 40.06C3.22333 40.06 2.62 39.91 2.08 39.61C1.54667 39.3033 1.12333 38.88 0.81 38.34C0.503333 37.8 0.35 37.1867 0.35 36.5ZM8.00578 37.21C8.00578 36.65 8.11578 36.1533 8.33578 35.72C8.56245 35.2867 8.86578 34.9533 9.24578 34.72C9.63245 34.4867 10.0624 34.37 10.5358 34.37C10.9491 34.37 11.3091 34.4533 11.6158 34.62C11.9291 34.7867 12.1791 34.9967 12.3658 35.25V34.46H13.7758V40H12.3658V39.19C12.1858 39.45 11.9358 39.6667 11.6158 39.84C11.3024 40.0067 10.9391 40.09 10.5258 40.09C10.0591 40.09 9.63245 39.97 9.24578 39.73C8.86578 39.49 8.56245 39.1533 8.33578 38.72C8.11578 38.28 8.00578 37.7767 8.00578 37.21ZM12.3658 37.23C12.3658 36.89 12.2991 36.6 12.1658 36.36C12.0324 36.1133 11.8524 35.9267 11.6258 35.8C11.3991 35.6667 11.1558 35.6 10.8958 35.6C10.6358 35.6 10.3958 35.6633 10.1758 35.79C9.95578 35.9167 9.77578 36.1033 9.63578 36.35C9.50245 36.59 9.43578 36.8767 9.43578 37.21C9.43578 37.5433 9.50245 37.8367 9.63578 38.09C9.77578 38.3367 9.95578 38.5267 10.1758 38.66C10.4024 38.7933 10.6424 38.86 10.8958 38.86C11.1558 38.86 11.3991 38.7967 11.6258 38.67C11.8524 38.5367 12.0324 38.35 12.1658 38.11C12.2991 37.8633 12.3658 37.57 12.3658 37.23ZM16.5431 32.6V40H15.1431V32.6H16.5431ZM23.0763 37.11C23.0763 37.31 23.063 37.49 23.0363 37.65H18.9863C19.0197 38.05 19.1597 38.3633 19.4063 38.59C19.653 38.8167 19.9563 38.93 20.3163 38.93C20.8363 38.93 21.2063 38.7067 21.4263 38.26H22.9363C22.7763 38.7933 22.4697 39.2333 22.0163 39.58C21.563 39.92 21.0063 40.09 20.3463 40.09C19.813 40.09 19.333 39.9733 18.9063 39.74C18.4863 39.5 18.1563 39.1633 17.9163 38.73C17.683 38.2967 17.5663 37.7967 17.5663 37.23C17.5663 36.6567 17.683 36.1533 17.9163 35.72C18.1497 35.2867 18.4763 34.9533 18.8963 34.72C19.3163 34.4867 19.7997 34.37 20.3463 34.37C20.873 34.37 21.343 34.4833 21.7563 34.71C22.1763 34.9367 22.4997 35.26 22.7263 35.68C22.9597 36.0933 23.0763 36.57 23.0763 37.11ZM21.6263 36.71C21.6197 36.35 21.4897 36.0633 21.2363 35.85C20.983 35.63 20.673 35.52 20.3063 35.52C19.9597 35.52 19.6663 35.6267 19.4263 35.84C19.193 36.0467 19.0497 36.3367 18.9963 36.71H21.6263ZM27.1682 34.38C27.8282 34.38 28.3615 34.59 28.7682 35.01C29.1749 35.4233 29.3782 36.0033 29.3782 36.75V40H27.9782V36.94C27.9782 36.5 27.8682 36.1633 27.6482 35.93C27.4282 35.69 27.1282 35.57 26.7482 35.57C26.3615 35.57 26.0549 35.69 25.8282 35.93C25.6082 36.1633 25.4982 36.5 25.4982 36.94V40H24.0982V34.46H25.4982V35.15C25.6849 34.91 25.9215 34.7233 26.2082 34.59C26.5015 34.45 26.8215 34.38 27.1682 34.38ZM30.3495 37.21C30.3495 36.65 30.4595 36.1533 30.6795 35.72C30.9062 35.2867 31.2129 34.9533 31.5995 34.72C31.9862 34.4867 32.4162 34.37 32.8895 34.37C33.2495 34.37 33.5929 34.45 33.9195 34.61C34.2462 34.7633 34.5062 34.97 34.6995 35.23V32.6H36.1195V40H34.6995V39.18C34.5262 39.4533 34.2829 39.6733 33.9695 39.84C33.6562 40.0067 33.2929 40.09 32.8795 40.09C32.4129 40.09 31.9862 39.97 31.5995 39.73C31.2129 39.49 30.9062 39.1533 30.6795 38.72C30.4595 38.28 30.3495 37.7767 30.3495 37.21ZM34.7095 37.23C34.7095 36.89 34.6429 36.6 34.5095 36.36C34.3762 36.1133 34.1962 35.9267 33.9695 35.8C33.7429 35.6667 33.4995 35.6 33.2395 35.6C32.9795 35.6 32.7395 35.6633 32.5195 35.79C32.2995 35.9167 32.1195 36.1033 31.9795 36.35C31.8462 36.59 31.7795 36.8767 31.7795 37.21C31.7795 37.5433 31.8462 37.8367 31.9795 38.09C32.1195 38.3367 32.2995 38.5267 32.5195 38.66C32.7462 38.7933 32.9862 38.86 33.2395 38.86C33.4995 38.86 33.7429 38.7967 33.9695 38.67C34.1962 38.5367 34.3762 38.35 34.5095 38.11C34.6429 37.8633 34.7095 37.57 34.7095 37.23ZM37.1269 37.21C37.1269 36.65 37.2369 36.1533 37.4569 35.72C37.6835 35.2867 37.9869 34.9533 38.3669 34.72C38.7535 34.4867 39.1835 34.37 39.6569 34.37C40.0702 34.37 40.4302 34.4533 40.7369 34.62C41.0502 34.7867 41.3002 34.9967 41.4869 35.25V34.46H42.8969V40H41.4869V39.19C41.3069 39.45 41.0569 39.6667 40.7369 39.84C40.4235 40.0067 40.0602 40.09 39.6469 40.09C39.1802 40.09 38.7535 39.97 38.3669 39.73C37.9869 39.49 37.6835 39.1533 37.4569 38.72C37.2369 38.28 37.1269 37.7767 37.1269 37.21ZM41.4869 37.23C41.4869 36.89 41.4202 36.6 41.2869 36.36C41.1535 36.1133 40.9735 35.9267 40.7469 35.8C40.5202 35.6667 40.2769 35.6 40.0169 35.6C39.7569 35.6 39.5169 35.6633 39.2969 35.79C39.0769 35.9167 38.8969 36.1033 38.7569 36.35C38.6235 36.59 38.5569 36.8767 38.5569 37.21C38.5569 37.5433 38.6235 37.8367 38.7569 38.09C38.8969 38.3367 39.0769 38.5267 39.2969 38.66C39.5235 38.7933 39.7635 38.86 40.0169 38.86C40.2769 38.86 40.5202 38.7967 40.7469 38.67C40.9735 38.5367 41.1535 38.35 41.2869 38.11C41.4202 37.8633 41.4869 37.57 41.4869 37.23ZM45.6642 35.32C45.8442 35.0267 46.0776 34.7967 46.3642 34.63C46.6576 34.4633 46.9909 34.38 47.3642 34.38V35.85H46.9942C46.5542 35.85 46.2209 35.9533 45.9942 36.16C45.7742 36.3667 45.6642 36.7267 45.6642 37.24V40H44.2642V34.46H45.6642V35.32Z" fill="black"/>
</svg>
