<svg width="37" height="44" viewBox="0 0 37 44" fill="none" xmlns="http://www.w3.org/2000/svg">
<path d="M5.5832 35.12C5.4232 34.8267 5.2032 34.6033 4.9232 34.45C4.6432 34.2967 4.31654 34.22 3.9432 34.22C3.52987 34.22 3.1632 34.3133 2.8432 34.5C2.5232 34.6867 2.2732 34.9533 2.0932 35.3C1.9132 35.6467 1.8232 36.0467 1.8232 36.5C1.8232 36.9667 1.9132 37.3733 2.0932 37.72C2.27987 38.0667 2.53654 38.3333 2.8632 38.52C3.18987 38.7067 3.56987 38.8 4.0032 38.8C4.53654 38.8 4.9732 38.66 5.3132 38.38C5.6532 38.0933 5.87654 37.6967 5.9832 37.19H3.5832V36.12H7.3632V37.34C7.26987 37.8267 7.06987 38.2767 6.7632 38.69C6.45654 39.1033 6.05987 39.4367 5.5732 39.69C5.0932 39.9367 4.5532 40.06 3.9532 40.06C3.27987 40.06 2.66987 39.91 2.1232 39.61C1.5832 39.3033 1.15654 38.88 0.843203 38.34C0.536536 37.8 0.383203 37.1867 0.383203 36.5C0.383203 35.8133 0.536536 35.2 0.843203 34.66C1.15654 34.1133 1.5832 33.69 2.1232 33.39C2.66987 33.0833 3.27654 32.93 3.9432 32.93C4.72987 32.93 5.4132 33.1233 5.9932 33.51C6.5732 33.89 6.9732 34.4267 7.1932 35.12H5.5832ZM9.79898 35.32C9.97898 35.0267 10.2123 34.7967 10.499 34.63C10.7923 34.4633 11.1257 34.38 11.499 34.38V35.85H11.129C10.689 35.85 10.3557 35.9533 10.129 36.16C9.90898 36.3667 9.79898 36.7267 9.79898 37.24V40H8.39898V34.46H9.79898V35.32ZM14.902 40.09C14.3686 40.09 13.8886 39.9733 13.462 39.74C13.0353 39.5 12.6986 39.1633 12.452 38.73C12.212 38.2967 12.092 37.7967 12.092 37.23C12.092 36.6633 12.2153 36.1633 12.462 35.73C12.7153 35.2967 13.0586 34.9633 13.492 34.73C13.9253 34.49 14.4086 34.37 14.942 34.37C15.4753 34.37 15.9586 34.49 16.392 34.73C16.8253 34.9633 17.1653 35.2967 17.412 35.73C17.6653 36.1633 17.792 36.6633 17.792 37.23C17.792 37.7967 17.662 38.2967 17.402 38.73C17.1486 39.1633 16.802 39.5 16.362 39.74C15.9286 39.9733 15.442 40.09 14.902 40.09ZM14.902 38.87C15.1553 38.87 15.392 38.81 15.612 38.69C15.8386 38.5633 16.0186 38.3767 16.152 38.13C16.2853 37.8833 16.352 37.5833 16.352 37.23C16.352 36.7033 16.212 36.3 15.932 36.02C15.6586 35.7333 15.322 35.59 14.922 35.59C14.522 35.59 14.1853 35.7333 13.912 36.02C13.6453 36.3 13.512 36.7033 13.512 37.23C13.512 37.7567 13.642 38.1633 13.902 38.45C14.1686 38.73 14.502 38.87 14.902 38.87ZM24.0489 34.46V40H22.6389V39.3C22.4589 39.54 22.2222 39.73 21.9289 39.87C21.6422 40.0033 21.3289 40.07 20.9889 40.07C20.5556 40.07 20.1722 39.98 19.8389 39.8C19.5056 39.6133 19.2422 39.3433 19.0489 38.99C18.8622 38.63 18.7689 38.2033 18.7689 37.71V34.46H20.1689V37.51C20.1689 37.95 20.2789 38.29 20.4989 38.53C20.7189 38.7633 21.0189 38.88 21.3989 38.88C21.7856 38.88 22.0889 38.7633 22.3089 38.53C22.5289 38.29 22.6389 37.95 22.6389 37.51V34.46H24.0489ZM26.8302 35.26C27.0102 35.0067 27.2569 34.7967 27.5702 34.63C27.8902 34.4567 28.2536 34.37 28.6602 34.37C29.1336 34.37 29.5602 34.4867 29.9402 34.72C30.3269 34.9533 30.6302 35.2867 30.8502 35.72C31.0769 36.1467 31.1902 36.6433 31.1902 37.21C31.1902 37.7767 31.0769 38.28 30.8502 38.72C30.6302 39.1533 30.3269 39.49 29.9402 39.73C29.5602 39.97 29.1336 40.09 28.6602 40.09C28.2536 40.09 27.8936 40.0067 27.5802 39.84C27.2736 39.6733 27.0236 39.4633 26.8302 39.21V42.64H25.4302V34.46H26.8302V35.26ZM29.7602 37.21C29.7602 36.8767 29.6902 36.59 29.5502 36.35C29.4169 36.1033 29.2369 35.9167 29.0102 35.79C28.7902 35.6633 28.5502 35.6 28.2902 35.6C28.0369 35.6 27.7969 35.6667 27.5702 35.8C27.3502 35.9267 27.1702 36.1133 27.0302 36.36C26.8969 36.6067 26.8302 36.8967 26.8302 37.23C26.8302 37.5633 26.8969 37.8533 27.0302 38.1C27.1702 38.3467 27.3502 38.5367 27.5702 38.67C27.7969 38.7967 28.0369 38.86 28.2902 38.86C28.5502 38.86 28.7902 38.7933 29.0102 38.66C29.2369 38.5267 29.4169 38.3367 29.5502 38.09C29.6902 37.8433 29.7602 37.55 29.7602 37.21ZM34.3276 40.09C33.8742 40.09 33.4676 40.01 33.1076 39.85C32.7476 39.6833 32.4609 39.46 32.2476 39.18C32.0409 38.9 31.9276 38.59 31.9076 38.25H33.3176C33.3442 38.4633 33.4476 38.64 33.6276 38.78C33.8142 38.92 34.0442 38.99 34.3176 38.99C34.5842 38.99 34.7909 38.9367 34.9376 38.83C35.0909 38.7233 35.1676 38.5867 35.1676 38.42C35.1676 38.24 35.0742 38.1067 34.8876 38.02C34.7076 37.9267 34.4176 37.8267 34.0176 37.72C33.6042 37.62 33.2642 37.5167 32.9976 37.41C32.7376 37.3033 32.5109 37.14 32.3176 36.92C32.1309 36.7 32.0376 36.4033 32.0376 36.03C32.0376 35.7233 32.1242 35.4433 32.2976 35.19C32.4776 34.9367 32.7309 34.7367 33.0576 34.59C33.3909 34.4433 33.7809 34.37 34.2276 34.37C34.8876 34.37 35.4142 34.5367 35.8076 34.87C36.2009 35.1967 36.4176 35.64 36.4576 36.2H35.1176C35.0976 35.98 35.0042 35.8067 34.8376 35.68C34.6776 35.5467 34.4609 35.48 34.1876 35.48C33.9342 35.48 33.7376 35.5267 33.5976 35.62C33.4642 35.7133 33.3976 35.8433 33.3976 36.01C33.3976 36.1967 33.4909 36.34 33.6776 36.44C33.8642 36.5333 34.1542 36.63 34.5476 36.73C34.9476 36.83 35.2776 36.9333 35.5376 37.04C35.7976 37.1467 36.0209 37.3133 36.2076 37.54C36.4009 37.76 36.5009 38.0533 36.5076 38.42C36.5076 38.74 36.4176 39.0267 36.2376 39.28C36.0642 39.5333 35.8109 39.7333 35.4776 39.88C35.1509 40.02 34.7676 40.09 34.3276 40.09Z" fill="black"/>
<path d="M22.97 15.44C24.34 15.67 25.85 15.43 26.91 14.72C28.32 13.78 28.32 12.24 26.91 11.3C25.84 10.59 24.31 10.35 22.94 10.59M13 15.44C11.63 15.67 10.12 15.43 9.06 14.72C7.65 13.78 7.65 12.24 9.06 11.3C10.13 10.59 11.66 10.35 13.03 10.59M24 8.16C23.9371 8.14999 23.8729 8.14999 23.81 8.16C23.1426 8.13587 22.5108 7.85321 22.048 7.37176C21.5852 6.89032 21.3277 6.2478 21.33 5.58C21.33 4.15 22.48 3 23.91 3C24.5943 3 25.2505 3.27182 25.7343 3.75566C26.2182 4.23951 26.49 4.89574 26.49 5.58C26.4882 6.24827 26.228 6.88996 25.7639 7.37081C25.2998 7.85167 24.6678 8.13445 24 8.16V8.16ZM11.97 8.16C12.03 8.15 12.1 8.15 12.16 8.16C12.8274 8.13587 13.4592 7.85321 13.922 7.37176C14.3848 6.89032 14.6423 6.2478 14.64 5.58C14.64 4.15 13.49 3 12.06 3C11.3757 3 10.7195 3.27182 10.2357 3.75566C9.75182 4.23951 9.48 4.89574 9.48 5.58C9.49 6.98 10.59 8.11 11.97 8.16ZM18 15.63C17.9371 15.62 17.8729 15.62 17.81 15.63C17.1426 15.6059 16.5108 15.3232 16.048 14.8418C15.5852 14.3603 15.3277 13.7178 15.33 13.05C15.33 11.62 16.48 10.47 17.91 10.47C18.5943 10.47 19.2505 10.7418 19.7343 11.2257C20.2182 11.7095 20.49 12.3657 20.49 13.05C20.48 14.45 19.38 15.59 18 15.63ZM15.09 18.78C13.68 19.72 13.68 21.26 15.09 22.2C16.69 23.27 19.31 23.27 20.91 22.2C22.32 21.26 22.32 19.72 20.91 18.78C19.32 17.72 16.69 17.72 15.09 18.78Z" stroke="black" stroke-width="1.5" stroke-linecap="round" stroke-linejoin="round"/>
</svg>
