<svg width="31" height="44" viewBox="0 0 31 44" fill="none" xmlns="http://www.w3.org/2000/svg">
<path d="M6 22H26" stroke="black" stroke-width="1.5" stroke-miterlimit="10" stroke-linecap="round" stroke-linejoin="round"/>
<path d="M6.95001 22L7.00001 9.97001C7.00001 9.36001 7.29001 8.78001 7.77001 8.40001L14.77 2.95001C15.1221 2.67755 15.5548 2.52972 16 2.52972C16.4452 2.52972 16.8779 2.67755 17.23 2.95001L24.23 8.39001C24.72 8.77001 25 9.35001 25 9.97001V22" stroke="black" stroke-width="1.5" stroke-miterlimit="10" stroke-linejoin="round"/>
<path d="M17 17H15C14.17 17 13.5 17.67 13.5 18.5V22H18.5V18.5C18.5 17.67 17.83 17 17 17ZM13.5 13.75H11.5C10.95 13.75 10.5 13.3 10.5 12.75V11.25C10.5 10.7 10.95 10.25 11.5 10.25H13.5C14.05 10.25 14.5 10.7 14.5 11.25V12.75C14.5 13.3 14.05 13.75 13.5 13.75ZM20.5 13.75H18.5C17.95 13.75 17.5 13.3 17.5 12.75V11.25C17.5 10.7 17.95 10.25 18.5 10.25H20.5C21.05 10.25 21.5 10.7 21.5 11.25V12.75C21.5 13.3 21.05 13.75 20.5 13.75Z" stroke="black" stroke-width="1.5" stroke-miterlimit="10" stroke-linejoin="round"/>
<path d="M23 7L22.97 4H18.57" stroke="black" stroke-width="1.5" stroke-miterlimit="10" stroke-linecap="round" stroke-linejoin="round"/>
<path d="M6.48 33.02V40H5.08V37.03H2.09V40H0.69V33.02H2.09V35.89H5.08V33.02H6.48ZM10.318 40.09C9.78464 40.09 9.30464 39.9733 8.87797 39.74C8.4513 39.5 8.11464 39.1633 7.86797 38.73C7.62797 38.2967 7.50797 37.7967 7.50797 37.23C7.50797 36.6633 7.6313 36.1633 7.87797 35.73C8.1313 35.2967 8.47464 34.9633 8.90797 34.73C9.3413 34.49 9.82464 34.37 10.358 34.37C10.8913 34.37 11.3746 34.49 11.808 34.73C12.2413 34.9633 12.5813 35.2967 12.828 35.73C13.0813 36.1633 13.208 36.6633 13.208 37.23C13.208 37.7967 13.078 38.2967 12.818 38.73C12.5646 39.1633 12.218 39.5 11.778 39.74C11.3446 39.9733 10.858 40.09 10.318 40.09ZM10.318 38.87C10.5713 38.87 10.808 38.81 11.028 38.69C11.2546 38.5633 11.4346 38.3767 11.568 38.13C11.7013 37.8833 11.768 37.5833 11.768 37.23C11.768 36.7033 11.628 36.3 11.348 36.02C11.0746 35.7333 10.738 35.59 10.338 35.59C9.93797 35.59 9.6013 35.7333 9.32797 36.02C9.0613 36.3 8.92797 36.7033 8.92797 37.23C8.92797 37.7567 9.05797 38.1633 9.31797 38.45C9.58464 38.73 9.91797 38.87 10.318 38.87ZM21.1149 34.38C21.7949 34.38 22.3416 34.59 22.7549 35.01C23.1749 35.4233 23.3849 36.0033 23.3849 36.75V40H21.9849V36.94C21.9849 36.5067 21.8749 36.1767 21.6549 35.95C21.4349 35.7167 21.1349 35.6 20.7549 35.6C20.3749 35.6 20.0716 35.7167 19.8449 35.95C19.6249 36.1767 19.5149 36.5067 19.5149 36.94V40H18.1149V36.94C18.1149 36.5067 18.0049 36.1767 17.7849 35.95C17.5649 35.7167 17.2649 35.6 16.8849 35.6C16.4983 35.6 16.1916 35.7167 15.9649 35.95C15.7449 36.1767 15.6349 36.5067 15.6349 36.94V40H14.2349V34.46H15.6349V35.13C15.8149 34.8967 16.0449 34.7133 16.3249 34.58C16.6116 34.4467 16.9249 34.38 17.2649 34.38C17.6983 34.38 18.0849 34.4733 18.4249 34.66C18.7649 34.84 19.0283 35.1 19.2149 35.44C19.3949 35.12 19.6549 34.8633 19.9949 34.67C20.3416 34.4767 20.7149 34.38 21.1149 34.38ZM29.8634 37.11C29.8634 37.31 29.8501 37.49 29.8234 37.65H25.7734C25.8068 38.05 25.9468 38.3633 26.1934 38.59C26.4401 38.8167 26.7434 38.93 27.1034 38.93C27.6234 38.93 27.9934 38.7067 28.2134 38.26H29.7234C29.5634 38.7933 29.2568 39.2333 28.8034 39.58C28.3501 39.92 27.7934 40.09 27.1334 40.09C26.6001 40.09 26.1201 39.9733 25.6934 39.74C25.2734 39.5 24.9434 39.1633 24.7034 38.73C24.4701 38.2967 24.3534 37.7967 24.3534 37.23C24.3534 36.6567 24.4701 36.1533 24.7034 35.72C24.9368 35.2867 25.2634 34.9533 25.6834 34.72C26.1034 34.4867 26.5868 34.37 27.1334 34.37C27.6601 34.37 28.1301 34.4833 28.5434 34.71C28.9634 34.9367 29.2868 35.26 29.5134 35.68C29.7468 36.0933 29.8634 36.57 29.8634 37.11ZM28.4134 36.71C28.4068 36.35 28.2768 36.0633 28.0234 35.85C27.7701 35.63 27.4601 35.52 27.0934 35.52C26.7468 35.52 26.4534 35.6267 26.2134 35.84C25.9801 36.0467 25.8368 36.3367 25.7834 36.71H28.4134Z" fill="black"/>
</svg>
